# xmcd
#
# Track frame offsets:
#	150
#	12644
#	26151
#	35765
#	48769
#	69223
#	81917
#	101290
#	111731
#	127025
#	139713
#	152915
#	162663
#	181482
#
# Disc length: 2579 seconds
#
# Revision: 1
# Processed by: cddbd v1.5.2PL0 Copyright (c) Steve Scherf et al.
# Submitted via: audiograbber 1.83.01
#
DISCID=c60a110e
DTITLE=Compilation - It's All Country 3
DYEAR=2008
DGENRE=Country
TTITLE0=Willie Nelson - Happiness Lives Next Door
TTITLE1=Hank Williams - Jambalaya
TTITLE2=The Bellamy Brothers - Let Your Love Flow (live)
TTITLE3=Willie Nelson - Any Old Arms Won't Do
TTITLE4=Johnny Cash - Banks of the Ohio
TTITLE5=Ray Price - Let It Rain, Let Her Cry
TTITLE6=Ricky Nelson - Garden Party
TTITLE7=Johnny Cash - Peace In The Valley (live)
TTITLE8=Willie Nelson - And So Will My Love
TTITLE9=Patsy Cline - Crazy
TTITLE10=The Statler Brothers - Do You Remember These
TTITLE11=Dave Dudley - Six Days On The Road
TTITLE12=Johnny Cash - San Quentin (live)
TTITLE13=Brenda Lee - I'm Sorry
EXTD=
EXTT0=
EXTT1=
EXTT2=
EXTT3=
EXTT4=
EXTT5=
EXTT6=
EXTT7=
EXTT8=
EXTT9=
EXTT10=
EXTT11=
EXTT12=
EXTT13=
PLAYORDER=
